<?xml version="1.0" encoding="UTF-8" standalone="no"?>
<svg
   version="1.1"
   width="841.88977"
   height="479.99991"
   id="svg30"
   viewBox="0 0 841.88977 479.99991"
   sodipodi:docname="181f830ed33bb6bee0959dab6bffcaeb.cdr"
   xmlns:inkscape="http://www.inkscape.org/namespaces/inkscape"
   xmlns:sodipodi="http://sodipodi.sourceforge.net/DTD/sodipodi-0.dtd"
   xmlns="http://www.w3.org/2000/svg"
   xmlns:svg="http://www.w3.org/2000/svg">
  <defs
     id="defs34" />
  <sodipodi:namedview
     id="namedview32"
     pagecolor="#ffffff"
     bordercolor="#666666"
     borderopacity="1.0"
     inkscape:pageshadow="2"
     inkscape:pageopacity="0.0"
     inkscape:pagecheckerboard="0" />
  <path
     d="M 0,1e-4 V 479.9998 H 841.8898 V 1e-4 Z"
     style="fill:none"
     id="path2" />
  <g
     id="Layer1000">
    <path
       d="m 101.8791,50.7357 h 365.7249 4.2872 2.131 v 2.131 4.2872 143.3025 2.131 h -2.131 -8.5745 -2.131 V 200.4564 63.5722 H 108.2999 V 289.6 v 2.131 h -2.1311 -8.5769 -2.1311 V 289.6 57.1539 52.8667 50.7357 h 2.1311 z"
       style="fill:#c6911e;fill-rule:evenodd"
       id="path4" />
    <g
       id="Layer1001">
      <path
         d="m 285.4255,84.5084 c 20.4491,0 39.9635,4.0736 57.7677,11.4439 18.4921,7.6594 35.1334,18.8828 49.0563,32.8058 l -0.006,0.005 c 13.9245,13.9183 25.151,30.5596 32.8104,49.047 7.3703,17.8026 11.4454,37.3232 11.4454,57.7724 0,20.4491 -4.0751,39.9697 -11.4454,57.7724 -7.6594,18.4858 -18.8859,35.1286 -32.8104,49.0453 l 0.006,0.006 c -13.9229,13.9229 -30.5642,25.1448 -49.0563,32.8042 -17.8042,7.3702 -37.3186,11.4454 -57.7677,11.4454 -20.4491,0 -39.9634,-4.0752 -57.7724,-11.4454 -18.492,-7.6594 -35.1333,-18.8813 -49.0578,-32.8042 -13.9121,-13.9121 -25.1448,-30.5596 -32.8043,-49.0579 -7.3702,-17.8027 -11.4438,-37.317 -11.4438,-57.7661 0,-20.4492 4.0736,-39.9635 11.4438,-57.7678 7.6595,-18.4967 18.8922,-35.1442 32.8043,-49.0562 13.9245,-13.923 30.5658,-25.1464 49.0578,-32.8058 17.809,-7.3703 37.3233,-11.4439 57.7724,-11.4439 z m 103.89,47.1899 C 375.7645,118.1474 359.5719,107.2194 341.6144,99.782 324.3229,92.6243 305.3353,88.6602 285.4255,88.6602 c -19.9098,0 -38.9021,3.9641 -56.1936,11.1218 -17.959,7.4374 -34.1501,18.3654 -47.701,31.9163 -13.5463,13.551 -24.468,29.7311 -31.9102,47.7011 -7.1529,17.2915 -11.1171,36.2666 -11.1171,56.1827 0,19.9145 3.9642,38.8911 11.1171,56.1826 7.4422,17.97 18.3639,34.1501 31.9102,47.7011 26.5844,26.5844 63.3247,43.0366 103.8946,43.0366 19.9098,0 38.8974,-3.9626 56.1889,-11.1218 17.9575,-7.4359 34.1501,-18.3639 47.7011,-31.9148 13.5509,-13.551 24.4726,-29.7374 31.9085,-47.6964 v -0.005 c 7.1655,-17.2978 11.1234,-36.2791 11.1234,-56.1826 0,-19.9052 -3.9579,-38.8865 -11.1234,-56.1827 v -0.006 c -7.4312,-17.9527 -18.3576,-34.1438 -31.9085,-47.6948 z"
         style="fill:#c6911e;fill-rule:evenodd"
         id="path6" />
      <path
         d="m 255.3349,91.4785 c -6.0431,0.977 -18.517,4.566 -23.4957,7.0061 1.2505,0.7065 9.5227,2.2431 6.2651,7.1686 l -3.2044,3.9875 c -2.5167,2.3245 -12.5302,-1.3458 -17.7762,3.7922 -2.6214,2.5683 -4.9723,6.8326 -3.2779,10.4262 1.757,3.7313 6.151,3.3624 10.9983,3.2061 13.2696,-0.4283 21.9482,-7.8424 21.2667,0.3892 -0.1423,1.7273 -0.9864,4.0376 -1.8508,5.3241 -1.1771,1.7523 -2.451,2.3087 -5.0083,1.6225 -5.2882,-1.4209 -5.8274,-2.798 -11.4735,-0.4236 -6.9138,2.909 -19.6582,12.4833 -24.9401,18.2076 l -3.3811,3.8031 c -0.9957,1.2052 -2.1915,2.6277 -3.1544,4.0439 -3.8281,5.632 -7.2577,15.7581 -11.3297,17.4728 -2.2275,0.9395 -3.7812,-0.4861 -4.591,-1.9211 -3.2794,-5.8086 1.768,-10.6091 -2.0086,-11.4797 -3.0638,-0.705 -6.7247,2.7495 -8.0455,6.1994 -1.7601,4.5988 1.1129,6.1776 0.7737,12.6224 -0.1532,2.9247 -0.9504,3.6781 0.7613,5.6758 1.0864,1.2662 2.315,2.4135 4.1017,3.1013 2.5979,0.9989 2.2228,1.9071 2.3822,4.7067 0.2751,4.8301 3.0544,5.1505 5.9494,8.5144 0.8316,0.9676 2.2509,2.7715 2.8558,4.3503 0.3877,1.0098 1.3553,14.3934 10.5529,8.788 2.4885,-1.5163 3.9782,-3.7516 5.4131,-5.3632 8.2816,-9.3054 6.7622,-10.5559 20.3366,-3.4749 4.3815,2.2854 4.1642,3.6125 10.2839,4.1189 4.5066,0.3705 3.0216,0.0751 5.6274,1.5366 7.9799,4.4722 12.2676,0.0766 18.3982,1.9727 4.7254,1.4616 7.067,5.1865 8.3879,6.0041 2.4526,1.5225 9.0772,1.8867 12.3754,2.0086 4.1799,0.1548 6.6872,1.3131 9.5665,4.8176 3.8985,4.7458 7.1248,14.6717 5.5461,22.5688 -1.4131,7.0607 -4.5723,7.1342 -9.4758,12.1222 -5.9416,6.0416 -9.9823,13.9683 -14.4138,21.5449 -3.6594,6.2526 -7.2202,11.4641 -8.9162,19.7832 -0.9067,4.4518 -0.68,8.9803 -1.5585,13.1726 -0.8691,4.1455 -2.4776,7.6376 -1.2302,12.1707 1.1849,4.308 3.2326,6.3839 1.1474,11.7377 -0.6409,1.646 -1.7148,3.5327 -3.9501,2.4604 -6.5871,-3.1576 -11.3375,-40.856 -24.0647,-40.7716 -2.1134,0.014 -3.9188,1.041 -6.5808,0.9754 -2.2979,-0.0563 -3.8641,-0.9848 -5.0693,-2.104 -8.7724,-8.1534 -18.5796,-3.0013 -24.393,-18.7641 -3.5155,-9.5305 -3.8031,-11.6079 -10.3918,-18.3763 -1.2145,-1.249 -2.4197,-2.3197 -3.7422,-3.4374 -1.4084,-1.1911 -2.3087,-2.4917 -3.6249,-3.5827 -1.6663,-1.3803 -4.7426,-5.7774 -5.6836,-8.6771 -3.3889,-10.4387 4.9661,-9.7884 6.634,-13.7557 1.9352,-4.6019 -2.1306,-9.7743 -2.3963,-11.1093 -0.1454,-0.7331 0.2689,-1.8836 0.1672,-3.17 -0.3407,-4.33 -3.4873,-9.5946 -6.0712,-11.9597 -4.6566,-4.2596 -4.4628,0.136 -6.2213,-8.1252 -0.902,-4.2362 -1.9665,-6.6544 -5.0115,-9.4133 -1.6663,-1.51 -2.2197,-1.3474 -3.6828,-3.5015 -1.0301,-1.5162 -1.6507,-3.2263 -2.0946,-5.1083 -1.2787,-5.4242 -0.2142,-8.4551 -0.3845,-13.429 -1.4725,1.8804 -4.8614,10.3339 -5.9337,13.207 -3.9532,10.5966 -6.2308,18.9454 -8.0628,30.2829 -0.483,2.9887 -1.3959,15.8988 -1.846,17.0946 v 11.3406 c 0.4423,1.3037 0.9801,11.6173 1.3349,14.2919 1.8148,13.6666 4.9833,24.9103 10.0198,37.5656 4.5206,11.364 10.4105,20.9727 17.1102,30.5345 2.9387,4.1955 4.4143,5.5758 6.9982,8.8834 l 13.3696,13.8979 c 0.8738,0.9661 1.3959,1.1552 2.2588,1.9493 13.1382,12.0909 33.5076,23.6191 50.3083,29.0917 3.1576,1.0286 9.1773,3.1842 12.3395,3.5015 2.9731,-1.1005 6.645,-3.0935 6.9467,-6.4167 0.4251,-4.6551 -9.3148,-13.6807 -7.4406,-18.2623 1.1817,-2.8856 7.711,-2.0008 10.9154,-2.5886 1.6804,-0.3079 3.886,-1.5287 5.4132,-0.88 1.0489,0.4455 2.6964,2.2962 3.5062,3.1513 2.3025,2.4369 4.6535,4.5409 8.6661,4.7488 9.2444,0.4783 11.2249,-6.8731 20.3459,-6.1432 3.9532,0.3158 7.7235,1.2834 11.7267,0.2767 3.1076,-0.7816 7.2577,-1.932 10.148,-3.0716 3.5343,-1.3927 5.7477,-2.5495 7.45,-5.7195 2.6683,-4.9661 11.8955,-5.965 17.9261,-8.7521 3.4171,-1.5788 5.4101,-3.4764 8.1847,-5.2928 3.0309,-1.9852 6.0212,-2.7465 10.2058,-2.909 3.4373,-0.1345 7.9705,-3.5062 10.7013,-0.9457 0.6612,4.0204 -3.7953,9.1694 -2.9231,12.563 2.115,0.125 3.75,-1.41 5.5648,-2.2556 2.6605,-1.2412 3.8547,-0.9864 6.8951,-1.2287 4.3174,-0.347 5.2584,-2.2196 13.2742,-2.4979 4.7645,-4.8567 11.125,-13.751 14.703,-19.5159 1.2474,-2.0118 3.417,-5.3163 4.2815,-7.5437 -10.4809,1.6397 -12.0582,3.3904 -25.2011,3.5717 -4.5847,0.0626 -8.3488,0.5894 -12.6615,1.5695 -3.8016,0.8644 -7.9439,2.6542 -11.6705,0.6674 -3.2138,-1.7116 -3.875,-6.623 -1.6491,-10.1026 3.739,-5.8415 12.3879,-4.2158 18.7562,-9.4195 2.7496,-2.2479 5.5273,-7.5829 6.1698,-7.9533 0.8784,-0.5065 3.6968,-0.5847 5.5366,-1.5991 5.1115,-2.8168 6.5137,-7.2155 8.527,-12.7553 2.5026,-6.8873 5.0396,-13.9636 7.8939,-20.2631 0.7394,-1.632 1.4897,-3.2076 2.426,-4.7645 1.7883,-2.97 2.2994,-3.8078 4.9536,-5.8446 3.2905,-2.5245 1.4241,-5.7821 2.079,-8.4113 1.238,-4.963 7.2796,-5.9415 11.8753,-16.2052 -0.3002,-6.3339 -2.6136,-14.2981 -4.0361,-20.2818 -10.248,0.05 -5.6992,17.6604 -8.7317,22.4093 -1.5866,2.4838 -4.5222,1.6163 -6.2636,4.0642 0.2861,3.1262 3.3795,3.5843 2.8512,8.072 -0.3017,2.5621 -1.9914,6.6231 -4.9536,5.5914 -1.8305,-0.6377 -3.0388,-4.4565 -4.3674,-6.4511 -6.8029,-10.2136 -13.7933,-7.5187 -22.1123,-3.5561 -2.054,0.9785 -5.3398,2.5151 -7.8627,2.9621 -3.9657,0.7034 -5.8977,-0.5549 -8.5035,-2.2853 -0.7878,-0.5221 -2.401,-1.721 -3.0481,-2.351 -3.0498,-2.9668 -5.4773,-5.9337 -4.108,-11.0577 0.7925,-2.9653 1.5882,-5.668 3.5608,-7.2499 2.1025,-1.6835 4.5316,-2.401 5.7337,-5.0474 2.0321,-4.4706 -1.1396,-11.8987 2.7027,-18.8719 3.1169,-5.6601 7.5375,-3.3154 11.0983,-2.5448 1.7242,0.3736 2.8746,0.3674 4.5441,0.5971 3.4999,0.4799 5.3366,2.995 7.3859,3.353 3.4905,0.6112 3.1513,-4.5316 2.0852,-6.8497 -1.7429,-3.7891 -3.9532,-1.9133 -6.6903,-4.1158 -4.2252,-3.3967 -6.2745,-9.8181 -8.7927,-12.7709 -0.9379,-1.0989 -1.807,-1.6773 -2.5698,-2.8231 -0.6753,-1.016 -1.4475,-2.6307 -2.1884,-3.22 -4.7973,-3.8204 -17.562,7.4374 -24.2319,-3.3264 -5.5289,-8.9256 3.6015,-11.1359 5.5194,-13.007 3.5797,-3.4967 -4.3252,-5.9493 -5.929,-13.5087 -1.2786,-6.0259 -3.0481,-3.3748 -5.4804,-5.346 -2.8809,-2.3322 4.072,-8.8036 4.38,-15.5361 -2.7527,-1.9008 -9.1804,-4.3831 -12.6819,-5.8384 -4.2674,-1.7757 -9.1835,-3.4139 -13.8479,-4.7144 -10.0495,-2.8027 -20.5366,-4.8802 -31.5912,-5.4882 -2.2822,5.4616 -14.5654,6.4433 -19.6332,8.5019 -3.6046,1.4647 -2.4197,3.4374 -4.6191,4.6801 -2.7949,1.5772 -13.2648,2.0165 -16.7131,1.0489 -6.9342,-1.9461 -1.3115,-9.3398 0.7596,-11.014 -0.2657,-0.4064 0.3689,-0.3501 -0.3845,-0.3267 z"
         style="fill:#c6911e;fill-rule:evenodd"
         id="path8" />
    </g>
    <path
       d="m 108.2999,416.4253 h 707.636 2.131 v 2.131 8.577 2.131 h -2.131 -718.3466 -2.131 v -2.131 -8.577 -2.131 h 0.0025 v -18.4195 h 12.8391 z"
       style="fill:#c6911e;fill-rule:evenodd"
       id="path11" />
    <path
       d="m 512.7137,342.2622 h 11.5112 0.5333 l 0.2069,0.4992 19.0762,46.0457 0.4584,1.1085 h -1.1986 -9.8675 -0.5466 l -0.2003,-0.5116 -3.4166,-8.6972 h -21.6026 l -3.4166,8.6972 -0.2012,0.5116 h -0.5457 -9.8665 -1.1996 l 0.4593,-1.1085 19.0762,-46.0457 0.206,-0.4992 z m 70.9785,47.0631 -8.9306,-32.029 -8.9317,32.029 -0.1651,0.5903 h -0.6065 -12.1689 -0.6074 l -0.1641,-0.5903 -12.8266,-46.0457 -0.2838,-1.0174 h 1.0553 9.8665 0.6084 l 0.1632,0.5903 8.925,32.3165 8.8016,-32.3137 0.1614,-0.5931 h 0.614 11.1164 0.6131 l 0.1623,0.5931 8.8016,32.3118 8.925,-32.3146 0.1623,-0.5903 h 0.6093 9.8674 1.0544 l -0.2828,1.0174 -12.8276,46.0457 -0.1651,0.5903 h -0.6065 -12.1689 -0.6074 z m -58.3636,-18.1205 -6.8588,-16.5754 -6.8599,16.5754 z"
       style="fill:#0a206b;fill-rule:evenodd"
       id="path13" />
    <path
       d="m 624.7662,339.7339 h 2.3269 v 60.0099 h -2.3269 z"
       style="fill:#666666;fill-rule:evenodd"
       id="path15" />
    <path
       d="m 455.2536,220.9889 c 4.583,-4.4046 11.0727,-7.0031 18.7981,-7.0031 9.8124,0 15.9338,4.7614 15.9509,4.7747 l 0.5732,0.447 -0.3881,0.6141 -3.9472,6.2486 -0.4185,0.6624 -0.6701,-0.4024 c -0.0123,-0.007 -4.5488,-2.8433 -10.4425,-2.8433 -4.7112,0 -8.627,1.5602 -11.3537,4.2869 l -0.002,-0.002 c -2.7257,2.7276 -4.285,6.6444 -4.285,11.3565 0,4.7111 1.5603,8.627 4.2869,11.3536 2.7267,2.7267 6.6425,4.2869 11.3537,4.2869 6.3188,0 11.0253,-3.4508 11.0376,-3.4603 l 0.6919,-0.5077 0.4593,0.727 3.9472,6.2486 0.371,0.5884 -0.5343,0.4508 c -0.018,0.0152 -6.4764,5.4543 -16.6304,5.4543 -7.7254,0 -14.2151,-2.5985 -18.7981,-7.0031 -4.6552,-4.473 -7.3306,-10.7956 -7.3306,-18.1385 0,-7.3429 2.6754,-13.6665 7.3306,-18.1395 z m 31.2963,168.9267 h -35.1922 -0.8039 v -0.8039 -46.0457 -0.8038 h 0.8039 9.2097 0.8038 v 0.8038 37.6769 h 25.1787 0.8039 v 0.8038 7.565 0.8039 z M 454.929,283.0254 c 3.1879,-2.3176 7.6741,-3.8352 13.2679,-3.8352 10.1597,0 16.9446,5.7665 16.9636,5.7827 l 0.5106,0.4337 -0.3351,0.5799 -3.6178,6.2496 -0.4527,0.7801 -0.7213,-0.541 c -0.0142,-0.0104 -5.0452,-3.7839 -11.6886,-3.7839 -2.647,0 -4.6505,0.5505 -6.0475,1.3486 h -0.003 c -1.585,0.9054 -2.3556,2.1032 -2.3556,3.1101 0,3.3644 4.5451,4.6912 9.7194,6.2002 7.5241,2.1933 16.2641,4.7435 16.2641,14.5198 0,4.3998 -2.0206,8.5102 -5.9573,11.4144 -3.4888,2.5738 -8.4875,4.1901 -14.9098,4.1901 -10.9626,0 -17.9477,-6.4413 -17.9677,-6.4594 l -0.5001,-0.4527 0.3587,-0.5675 3.9472,-6.2496 0.5182,-0.8219 0.7089,0.6653 c 0.0133,0.0124 5.0917,4.714 12.2771,4.714 3.3388,0 5.8481,-0.7251 7.5669,-1.8364 1.8886,-1.2224 2.8121,-2.9165 2.8121,-4.5963 0,-2.7817 -4.1389,-3.9719 -9.0057,-5.3708 -7.6665,-2.2028 -16.9778,-4.8791 -16.9778,-15.3492 0,-3.7355 1.9636,-7.4606 5.6251,-10.1246 z"
       style="fill:#c6911e;fill-rule:evenodd"
       id="path17" />
    <path
       d="m 513.2224,215.3012 h 11.5112 0.5333 l 0.2069,0.4992 19.0762,46.0457 0.4584,1.1085 h -1.1986 -9.8675 -0.5466 l -0.2003,-0.5115 -3.4166,-8.6973 h -21.6026 l -3.4166,8.6973 -0.2012,0.5115 h -0.5457 -9.8665 -1.1996 l 0.4593,-1.1085 19.0762,-46.0457 0.206,-0.4992 z m 229.8442,47.6534 h -35.1922 -0.8039 v -0.8038 -46.0458 -0.8038 h 0.8039 9.2097 0.8038 v 0.8038 37.6769 h 25.1787 0.8038 v 0.8039 7.565 0.8038 z m -71.7018,-47.6534 h 11.5112 0.5334 l 0.2069,0.4992 19.0762,46.0457 0.4584,1.1085 h -1.1987 -9.8674 -0.5467 l -0.2002,-0.5115 -3.4166,-8.6973 h -21.6026 l -3.4167,8.6973 -0.2012,0.5115 h -0.5457 -9.8664 -1.1997 l 0.4594,-1.1085 19.0762,-46.0457 0.2059,-0.4992 z m 12.615,28.9426 -6.8589,-16.5754 -6.8598,16.5754 z M 612.8703,223.67 v -7.565 -0.8038 h 0.8038 40.7832 0.8038 v 0.8038 7.565 0.8039 h -0.8038 -14.9838 v 37.6769 0.8038 h -0.8039 -9.2088 -0.8038 v -0.8038 -37.6769 h -14.9829 -0.8038 z M 597.95,215.3012 h 9.2097 0.8039 v 0.8038 46.0458 0.8038 h -0.8039 -9.2097 -0.8038 v -0.8038 -46.0458 -0.8038 z m -49.0219,46.8496 v -46.0458 -0.8038 h 0.8038 21.0493 c 6.372,0 11.3508,1.6732 14.8111,4.4416 3.7687,3.0142 5.7266,7.3068 5.7266,12.149 0,4.844 -1.9579,9.1356 -5.7266,12.1499 -3.4603,2.7684 -8.4391,4.4416 -14.8111,4.4416 h -11.0357 v 13.6675 0.8038 h -0.8039 -9.2097 -0.8038 z m 28.5725,-35.532 c -1.6201,-1.3069 -3.9159,-2.1449 -6.7194,-2.1449 h -11.0357 v 14.8367 h 11.0357 c 2.8035,0 5.0993,-0.838 6.7194,-2.1449 1.7111,-1.3799 2.6725,-3.2913 2.6725,-5.2739 0,-1.9817 -0.9614,-3.8931 -2.6725,-5.273 z m -51.6633,17.625 -6.8588,-16.5754 -6.8599,16.5754 z"
       style="fill:#0a206b;fill-rule:evenodd"
       id="path19" />
    <path
       d="m 496.2598,288.8745 v -7.565 -0.8039 h 0.8038 40.7832 0.8038 v 0.8039 7.565 0.8038 h -0.8038 -14.9838 v 37.6769 0.8039 h -0.8039 -9.2088 -0.8038 v -0.8039 -37.6769 h -14.9829 -0.8038 z m 208.494,0 v -7.565 -0.8039 h 0.8039 40.7832 0.8038 v 0.8039 7.565 0.8038 h -0.8038 -14.9839 v 37.6769 0.8039 h -0.8038 -9.2088 -0.8038 v -0.8039 -37.6769 h -14.9829 -0.8039 z m -8.6943,39.2846 h -37.4947 -0.8038 v -0.8039 -46.0457 -0.8039 h 0.8038 36.837 0.8038 v 0.8039 7.565 0.8038 h -0.8038 -26.8234 v 10.2319 h 18.2714 0.8038 v 0.8039 7.5649 0.8039 h -0.8038 -18.2714 v 9.9035 h 27.4811 0.8038 v 0.8038 7.565 0.8039 z m -51.1375,0 h -37.4946 -0.8039 v -0.8039 -46.0457 -0.8039 h 0.8039 36.8369 0.8039 v 0.8039 7.565 0.8038 h -0.8039 -26.8234 v 10.2319 h 18.2714 0.8039 v 0.8039 7.5649 0.8039 h -0.8039 -18.2714 v 9.9035 h 27.4811 0.8039 v 0.8038 7.565 0.8039 z m -94.8285,-0.8039 v -46.0457 -0.8039 h 0.8039 21.0492 c 6.2098,0 11.0263,1.5926 14.3651,4.2395 3.6434,2.8899 5.515,7.0145 5.515,11.6934 0,8.5957 -6.1604,12.465 -8.3262,13.5612 l 11.7959,16.8971 0.8808,1.2623 h -1.5366 -10.8534 -0.4186 l -0.2401,-0.3493 -10.6134,-15.4375 h -11.6042 v 14.9829 0.8039 h -0.8038 -9.2097 -0.8039 z m 28.0837,-26.0822 c 1.6533,-1.3106 2.5037,-3.1195 2.5037,-4.8345 0,-1.9693 -0.7811,-3.7004 -2.3006,-4.9057 l 0.002,-0.002 c -1.4606,-1.1559 -3.6149,-1.8526 -6.4356,-1.8526 h -11.0357 v 13.5213 h 11.0357 c 2.6887,0 4.7738,-0.7706 6.2306,-1.9266 z"
       style="fill:#0a206b;fill-rule:evenodd"
       id="path21" />
    <path
       d="m 639.3494,348.0527 v 15.306 h 3.0593 v -4.8093 h 3.9374 c 4.264,0 6.5593,-2.2984 6.5593,-5.2499 0,-2.9516 -2.2953,-5.2468 -6.5593,-5.2468 z m 6.9967,2.514 c 2.0766,0 3.3891,1.3125 3.3891,2.7328 0,1.4234 -1.3125,2.7359 -3.3891,2.7359 h -3.9374 v -5.4687 z m 9.0321,-2.514 v 15.306 h 3.0593 v -5.2468 h 4.264 l 3.6078,5.2468 h 3.6078 l -4.0453,-5.7952 v -0.1078 c 0,0 2.8437,-1.0938 2.8437,-4.375 0,-2.8405 -2.1875,-5.028 -6.3405,-5.028 z m 10.1671,5.028 c 0,1.2047 -1.0938,2.5172 -3.1703,2.5172 h -3.9375 v -5.0312 h 3.9375 c 2.0765,0 3.1703,1.0937 3.1703,2.514 z m 5.5765,2.625 c 0,4.7015 3.389,8.0905 8.1983,8.0905 4.8093,0 8.2014,-3.389 8.2014,-8.0905 0,-4.7015 -3.3921,-8.0905 -8.2014,-8.0905 -4.8093,0 -8.1983,3.389 -8.1983,8.0905 z m 13.2263,0 c 0,3.2812 -2.1843,5.4655 -5.028,5.4655 -2.8406,0 -5.0281,-2.1843 -5.0281,-5.4655 0,-3.2812 2.1875,-5.4655 5.0281,-5.4655 2.8437,0 5.028,2.1843 5.028,5.4655 z m 5.8396,7.653 h 3.0593 v -5.6843 h 6.3406 v -2.4918 h -6.3406 v -4.6159 h 9.1843 v -2.514 h -12.2436 z m 14.4089,0 h 12.4623 v -2.514 h -9.403 v -3.8265 h 6.3405 v -2.514 h -6.3405 v -3.9375 h 9.1842 v -2.514 h -12.2435 z m 20.4197,-15.7435 c -3.8266,0 -6.0109,2.1875 -6.0109,4.3749 0,5.5734 8.6358,4.1531 8.6358,6.8859 0,1.2015 -1.2015,2.4062 -3.7187,2.4062 -2.4918,0 -4.2608,-1.639 -4.2608,-1.639 l -1.3125,2.0765 c 0,0 2.2509,2.0765 5.7921,2.0765 4.3749,0 6.6702,-2.2953 6.6702,-4.9202 0,-5.3578 -8.6358,-3.8266 -8.6358,-6.8859 0,-0.7672 0.9828,-1.7499 3.0593,-1.7499 2.2953,0 4.0453,1.3124 4.0453,1.3124 l 1.2047,-2.0796 c 0,0 -2.1875,-1.8578 -5.4687,-1.8578 z m 13.8635,0 c -3.8265,0 -6.0108,2.1875 -6.0108,4.3749 0,5.5734 8.6358,4.1531 8.6358,6.8859 0,1.2015 -1.2015,2.4062 -3.7187,2.4062 -2.4919,0 -4.2609,-1.639 -4.2609,-1.639 l -1.3124,2.0765 c 0,0 2.2508,2.0765 5.792,2.0765 4.375,0 6.6703,-2.2953 6.6703,-4.9202 0,-5.3578 -8.6358,-3.8266 -8.6358,-6.8859 0,-0.7672 0.9827,-1.7499 3.0593,-1.7499 2.2952,0 4.0452,1.3124 4.0452,1.3124 l 1.2047,-2.0796 c 0,0 -2.1875,-1.8578 -5.4687,-1.8578 z m 11.3274,0.4375 h -3.0593 v 15.306 h 3.0593 z m 2.6693,7.653 c 0,4.7015 3.389,8.0905 8.1983,8.0905 4.8093,0 8.2015,-3.389 8.2015,-8.0905 0,-4.7015 -3.3922,-8.0905 -8.2015,-8.0905 -4.8093,0 -8.1983,3.389 -8.1983,8.0905 z m 13.2264,0 c 0,3.2812 -2.1843,5.4655 -5.0281,5.4655 -2.8405,0 -5.028,-2.1843 -5.028,-5.4655 0,-3.2812 2.1875,-5.4655 5.028,-5.4655 2.8438,0 5.0281,2.1843 5.0281,5.4655 z m 16.6629,2.8437 -7.5452,-10.4967 h -3.2781 v 15.306 h 3.0593 V 352.862 h 0.111 l 7.542,10.4967 h 3.2812 v -15.306 h -3.0624 v 10.4967 z m 15.3029,-10.4967 h -3.8266 l -6.3405,15.306 h 3.2812 l 1.2016,-3.0625 h 7.542 l 1.2047,3.0625 h 3.2781 z m -1.9688,3.2812 h 0.111 l 2.625,6.3405 h -5.3578 z m 10.278,12.0248 h 11.6983 v -2.514 h -8.639 v -12.792 h -3.0593 z"
       style="fill:#666666;fill-rule:evenodd"
       id="path23" />
    <path
       d="m 647.34,372.9931 c -5.296,0 -8.8656,3.5608 -8.8656,8.5006 0,4.9398 3.5696,8.5006 8.8656,8.5006 3.4561,0 5.6432,-1.8387 5.6432,-1.8387 l -1.3824,-2.1818 c 0,0 -1.7264,1.2625 -4.0304,1.2625 -3.4528,0 -5.7568,-2.295 -5.7568,-5.7426 0,-3.4475 2.304,-5.7425 5.7568,-5.7425 2.1438,0 3.8,1.0326 3.8,1.0326 l 1.3824,-2.1818 c 0,0 -2.0736,-1.6089 -5.4128,-1.6089 z m 7.2093,8.5006 c 0,4.9398 3.5697,8.5006 8.6352,8.5006 5.0656,0 8.6386,-3.5608 8.6386,-8.5006 0,-4.9398 -3.573,-8.5006 -8.6386,-8.5006 -5.0655,0 -8.6352,3.5608 -8.6352,8.5006 z m 13.9312,0 c 0,3.4476 -2.3007,5.7426 -5.296,5.7426 -2.9919,0 -5.296,-2.295 -5.296,-5.7426 0,-3.4475 2.3041,-5.7425 5.296,-5.7425 2.9953,0 5.296,2.295 5.296,5.7425 z m 6.1508,-8.0409 v 16.0818 h 3.2224 v -5.5127 h 4.4912 l 3.8,5.5127 h 3.8001 l -4.2609,-6.0889 v -0.1133 c 0,0 2.9953,-1.1492 2.9953,-4.5967 0,-2.9845 -2.304,-5.2829 -6.6784,-5.2829 z m 10.7089,5.2829 c 0,1.2658 -1.152,2.6448 -3.3392,2.6448 h -4.1473 v -5.2862 h 4.1473 c 2.1872,0 3.3392,1.1491 3.3392,2.6414 z m 6.7953,-5.2829 v 16.0818 h 3.2223 v -5.053 h 4.1473 c 4.4913,0 6.9089,-2.415 6.9089,-5.5161 0,-3.1011 -2.4176,-5.5127 -6.9089,-5.5127 z m 7.3696,2.6415 c 2.1872,0 3.5696,1.379 3.5696,2.8712 0,1.4956 -1.3824,2.8746 -3.5696,2.8746 h -4.1473 v -5.7458 z m 8.5918,5.3994 c 0,4.9398 3.5696,8.5006 8.6352,8.5006 5.0656,0 8.6386,-3.5608 8.6386,-8.5006 0,-4.9398 -3.573,-8.5006 -8.6386,-8.5006 -5.0656,0 -8.6352,3.5608 -8.6352,8.5006 z m 13.9312,0 c 0,3.4476 -2.3007,5.7426 -5.296,5.7426 -2.9919,0 -5.296,-2.295 -5.296,-5.7426 0,-3.4475 2.3041,-5.7425 5.296,-5.7425 2.9953,0 5.296,2.295 5.296,5.7425 z m 6.1508,-8.0409 v 16.0818 h 3.2224 v -5.5127 h 4.4912 l 3.8,5.5127 h 3.8001 l -4.2609,-6.0889 v -0.1133 c 0,0 2.9953,-1.1492 2.9953,-4.5967 0,-2.9845 -2.3041,-5.2829 -6.6784,-5.2829 z m 10.7089,5.2829 c 0,1.2658 -1.152,2.6448 -3.3392,2.6448 h -4.1473 v -5.2862 h 4.1473 c 2.1872,0 3.3392,1.1491 3.3392,2.6414 z m 15.8445,-5.2829 h -4.0304 l -6.6784,16.0818 h 3.4561 l 1.2655,-3.2177 h 7.944 l 1.2689,3.2177 h 3.4528 z m -2.0736,3.4475 h 0.1169 l 2.7648,6.6619 h -5.6432 z m 7.9941,-3.4475 v 2.6415 h 5.5264 v 13.4403 h 3.2256 v -13.4403 h 5.5264 v -2.6415 z m 19.7815,0 h -3.2224 v 16.0818 h 3.2224 z m 2.8116,8.0409 c 0,4.9398 3.5696,8.5006 8.6352,8.5006 5.0655,0 8.6385,-3.5608 8.6385,-8.5006 0,-4.9398 -3.573,-8.5006 -8.6385,-8.5006 -5.0656,0 -8.6352,3.5608 -8.6352,8.5006 z m 13.9312,0 c 0,3.4476 -2.3008,5.7426 -5.296,5.7426 -2.992,0 -5.296,-2.295 -5.296,-5.7426 0,-3.4475 2.304,-5.7425 5.296,-5.7425 2.9952,0 5.296,2.295 5.296,5.7425 z m 17.5508,2.9879 -7.9473,-11.0288 h -3.4527 v 16.0818 h 3.2223 v -11.0287 h 0.1169 l 7.944,11.0287 h 3.4561 v -16.0818 h -3.2257 v 11.0288 z"
       style="fill:#666666;fill-rule:evenodd"
       id="path25" />
    <path
       d="m 218.0043,324.3733 v -5.3238 h 3.5475 v -8.7254 h 2.1437 v -6.7957 h 2.1436 v 6.7957 h 1.034 v 14.0492 h 0.9083 v 19.7177 h 7.8675 c 3.5425,-39.1134 3.8746,-81.6963 3.9048,-88.3863 h -3.8621 v -2.9713 l -2.6669,-3.1626 v -3.7916 l 4.6822,-4.1564 h -2.0153 v -2.9714 h 3.8142 v -2.9688 h 1.5247 v -2.9286 h 1.7763 v -22.4803 h -0.0679 l -2.2996,-2.2216 v -1.2303 -1.1246 l 2.3675,-2.3248 v -16.4268 h 1.1725 v -5.9402 h 0.6214 v -19.8435 h 1.5121 v 19.8435 h 0.6214 v 5.9402 h 1.1725 v 16.4268 l 2.2996,2.2216 v 1.2278 1.1272 l -2.2996,2.2568 v 22.5482 h 1.7763 v 2.9286 h 1.5247 v 2.9688 h 3.8142 v 2.9714 h -1.8769 l 4.5438,4.1564 v 3.7916 l -2.6669,3.1626 v 2.9713 h -4.2898 c 0.0327,6.7957 0.3749,50.6366 4.0759,90.2531 h 12.3157 v -43.5314 h 4.4608 v -5.0999 h 8.6525 v -3.2808 h 2.8229 v -7.1026 h 3.0972 v 7.1026 h 1.0013 v 3.2808 h 1.7285 v 5.0999 h 3.7337 v 26.5914 h 16.3941 v 12.5698 h 4.9163 v -26.5939 h 9.1078 v -5.5578 h 5.0999 v -38.3384 h 5.6458 v -21.5267 h 2.5512 v -15.038 h 1.3662 v -6.4208 h 2.1839 v 6.4208 h 1.0013 v 15.038 h 5.8295 v -15.038 h 1.3662 v -6.4208 h 2.1864 v 6.4208 h 1.0014 v 15.038 h 1.6404 v 21.5267 h 3.3689 v 43.8962 h 32.7831 v 20.3996 h 4.9188 v -5.8396 -1.7159 -5.827 -1.7159 -5.827 -1.7159 -5.8245 -1.7159 -5.827 -1.7159 -5.827 -1.7159 -5.8245 -7.5429 h 5.1904 v -16.5903 h 2.5965 v -3.8243 h 6.2824 v -10.5646 h 2.7324 v 10.5646 h 1.3661 v 3.8243 h 3.4142 v -10.5973 h 4.5087 V 232.754 h 2.1863 v 16.8168 h 5.3289 v 10.5973 h 2.1838 v 16.5903 h 4.3728 v 7.5429 5.8245 1.7159 5.827 1.7159 5.827 1.7159 5.8245 1.7159 5.827 1.7159 5.827 1.7159 7.8926 51.5423 H 23.8137 v -34.0135 h 0.0553 v -1.7738 h 3.696 v -3.6959 h 0.5913 V 339.6 h 1.3309 v -6.4309 h 5.2484 v -2.9562 h 1.4039 v -3.4016 h 1.034 v 3.4016 h 0.3699 v 2.9562 h 1.2555 V 339.6 h 1.0365 v 9.9054 h 1.3285 v 3.6959 h 5.5628 v -5.5074 h 3.4947 v -4.4357 h 2.3273 v -5.6534 h 5.2106 v -5.3766 h 3.3638 v -39.048 h 3.233 v -12.122 h 1.3863 v -4.6017 l 2.3575,1.8014 V 267.087 h 0.6919 v 11.6993 l 1.6631,1.2731 v 0.9988 h 1.6077 v 12.122 h 3.3991 v 40.8746 h 3.4016 v 11.0149 h 4.8105 v -27.1625 h 4.2067 v -6.544 h 6.3579 v -10.7584 h 5.9302 v -2.5839 h 6.3754 v 2.5839 h 4.632 v 17.3024 h 2.1863 v 35.3369 h 2.3676 v -36.8289 h 4.4608 v -5.0998 h 8.6524 v -3.2809 h 2.823 v -7.1026 h 3.0971 v 7.1026 h 1.0014 v 3.2809 h 1.7285 v 5.0998 h 3.7337 v 26.5914 h 14.6304 v 10.5621 l 5.354,0.0427 v -53.5953 h 1.6505 v 20.3995 h 4.9187 v -5.8395 -52.7953 h 5.1904 v -16.5903 h 2.5965 v -3.8243 h 6.2824 v -10.5646 h 2.7324 v 10.5646 h 1.3662 v 3.8243 h 3.4141 v -10.5973 h 4.5087 v -16.8168 h 2.1864 v 16.8168 h 5.3288 v 10.5973 h 2.1839 v 16.5903 h 4.3727 v 52.7953 7.8926 31.5277 l 7.0146,0.0579 v -0.0378 h 0.9837 v -29.6432 z"
       style="fill:#0a206b;fill-rule:evenodd"
       id="path27" />
  </g>
</svg>
